<svg width="85" height="85" viewBox="0 0 85 85" fill="none" xmlns="http://www.w3.org/2000/svg">
<path d="M64.8276 60.8742H19.2817C15.7687 60.8742 12.3996 59.4787 9.91553 56.9946C7.43145 54.5105 6.03591 51.1414 6.03591 47.6284V22.8367C6.01721 21.0837 6.34575 19.3443 7.0026 17.7189C7.65945 16.0935 8.63161 14.6142 9.86299 13.3663C11.0944 12.1185 12.5606 11.1268 14.1772 10.4484C15.7938 9.77001 17.5286 9.41839 19.2817 9.41382H64.8276C68.3377 9.42317 71.7014 10.8217 74.1835 13.3038C76.6655 15.7858 78.0641 19.1495 78.0734 22.6597V47.6284C78.0734 49.3679 77.7308 51.0903 77.0651 52.6974C76.3995 54.3044 75.4238 55.7646 74.1938 56.9946C72.9638 58.2246 71.5036 59.2003 69.8966 59.866C68.2895 60.5316 66.5671 60.8742 64.8276 60.8742ZM19.2817 12.9555C16.708 12.9555 14.2397 13.9779 12.4199 15.7978C10.6 17.6177 9.57758 20.0859 9.57758 22.6597V47.6284C9.57758 50.2021 10.6 52.6704 12.4199 54.4903C14.2397 56.3102 16.708 57.3326 19.2817 57.3326H64.8276C67.4013 57.3326 69.8696 56.3102 71.6895 54.4903C73.5094 52.6704 74.5318 50.2021 74.5318 47.6284V22.8367C74.5553 21.5475 74.3217 20.2666 73.8445 19.0687C73.3674 17.8708 72.6563 16.78 71.7528 15.8601C70.8494 14.9401 69.7716 14.2095 68.5826 13.7107C67.3935 13.212 66.117 12.9553 64.8276 12.9555H19.2817Z" fill="#FF4343"/>
<path d="M76.3018 47.4159H7.80599C7.33917 47.4069 6.894 47.2174 6.56385 46.8872C6.2337 46.5571 6.04422 46.1119 6.03516 45.6451C6.03516 45.1754 6.22173 44.725 6.55382 44.3929C6.88592 44.0608 7.33634 43.8743 7.80599 43.8743H76.3018C76.7715 43.8743 77.2219 44.0608 77.554 44.3929C77.8861 44.725 78.0727 45.1754 78.0727 45.6451C78.0727 46.1148 77.8861 46.5652 77.554 46.8973C77.2219 47.2294 76.7715 47.4159 76.3018 47.4159Z" fill="#FF4343"/>
<path d="M42.0072 74.5804C41.5375 74.5804 41.0871 74.3939 40.755 74.0618C40.4229 73.7297 40.2363 73.2793 40.2363 72.8096V59.1034C40.2363 58.6337 40.4229 58.1833 40.755 57.8512C41.0871 57.5191 41.5375 57.3325 42.0072 57.3325C42.4768 57.3325 42.9272 57.5191 43.2593 57.8512C43.5914 58.1833 43.778 58.6337 43.778 59.1034V72.8096C43.778 73.2793 43.5914 73.7297 43.2593 74.0618C42.9272 74.3939 42.4768 74.5804 42.0072 74.5804Z" fill="#FF4343"/>
<path d="M62.4694 74.5805H21.3861C20.9164 74.5805 20.466 74.3939 20.1339 74.0618C19.8018 73.7297 19.6152 73.2793 19.6152 72.8097C19.6152 72.34 19.8018 71.8896 20.1339 71.5575C20.466 71.2254 20.9164 71.0388 21.3861 71.0388H62.4694C62.9391 71.0388 63.3895 71.2254 63.7216 71.5575C64.0537 71.8896 64.2402 72.34 64.2402 72.8097C64.2402 73.2793 64.0537 73.7297 63.7216 74.0618C63.3895 74.3939 62.9391 74.5805 62.4694 74.5805Z" fill="#FF4343"/>
</svg>
