<svg width="85" height="85" viewBox="0 0 85 85" fill="none" xmlns="http://www.w3.org/2000/svg">
<path d="M56.5184 57.1909C56.2253 57.1942 55.936 57.1248 55.6764 56.9888C55.4168 56.8528 55.195 56.6545 55.0309 56.4117C54.9 56.215 54.8099 55.994 54.7658 55.7619C54.7217 55.5298 54.7244 55.2912 54.7739 55.0601C54.8234 54.8291 54.9187 54.6103 55.054 54.4167C55.1894 54.223 55.3622 54.0584 55.5621 53.9325C60.118 51.0022 63.6025 46.6753 65.494 41.5994C67.3856 36.5235 67.5826 30.9715 66.0555 25.7743C64.5284 20.577 61.3593 16.0141 57.0225 12.7683C52.6857 9.52244 47.4145 7.76827 41.9975 7.76827C36.5806 7.76827 31.3093 9.52244 26.9726 12.7683C22.6358 16.0141 19.4667 20.577 17.9396 25.7743C16.4125 30.9715 16.6094 36.5235 18.501 41.5994C20.3926 46.6753 23.8771 51.0022 28.4329 53.9325C28.6418 54.0517 28.8242 54.2121 28.969 54.404C29.1139 54.5959 29.2181 54.8153 29.2754 55.0489C29.3327 55.2824 29.3418 55.5251 29.3022 55.7623C29.2626 55.9994 29.1751 56.226 29.0451 56.4283C28.9151 56.6306 28.7452 56.8042 28.5459 56.9387C28.3466 57.0732 28.122 57.1656 27.8858 57.2105C27.6495 57.2553 27.4067 57.2516 27.1719 57.1995C26.9372 57.1474 26.7155 57.0481 26.5204 56.9075C21.3203 53.5639 17.3428 48.626 15.1834 42.8331C13.0239 37.0401 12.7985 30.7036 14.541 24.7718C16.2835 18.8401 19.9001 13.6322 24.8496 9.92752C29.799 6.22286 35.8152 4.2207 41.9975 4.2207C48.1799 4.2207 54.196 6.22286 59.1455 9.92752C64.095 13.6322 67.7116 18.8401 69.4541 24.7718C71.1965 30.7036 70.9712 37.0401 68.8117 42.8331C66.6522 48.626 62.6748 53.5639 57.4746 56.9075C57.1923 57.0975 56.8586 57.1964 56.5184 57.1909Z" fill="#FF4343"/>
<path d="M56.5176 71.1804H27.4759C27.0091 71.1714 26.5639 70.9819 26.2338 70.6517C25.9036 70.3216 25.7141 69.8764 25.7051 69.4096V55.42C25.7141 54.9532 25.9036 54.508 26.2338 54.1779C26.5639 53.8477 27.0091 53.6582 27.4759 53.6492C27.9456 53.6492 28.396 53.8357 28.7281 54.1678C29.0602 54.4999 29.2467 54.9503 29.2467 55.42V67.6388H54.7467V55.42C54.7467 54.9503 54.9333 54.4999 55.2654 54.1678C55.5975 53.8357 56.0479 53.6492 56.5176 53.6492C56.9844 53.6582 57.4296 53.8477 57.7597 54.1779C58.0899 54.508 58.2793 54.9532 58.2884 55.42V69.4096C58.2793 69.8764 58.0899 70.3216 57.7597 70.6517C57.4296 70.9819 56.9844 71.1714 56.5176 71.1804Z" fill="#FF4343"/>
<path d="M32.7181 79.8221C32.2484 79.8221 31.798 79.6355 31.4659 79.3034C31.1338 78.9714 30.9473 78.5209 30.9473 78.0513V71.818C30.9563 71.3511 31.1458 70.906 31.476 70.5758C31.8061 70.2457 32.2513 70.0562 32.7181 70.0471C33.1877 70.0471 33.6382 70.2337 33.9703 70.5658C34.3024 70.8979 34.4889 71.3483 34.4889 71.818V78.0513C34.4889 78.5209 34.3024 78.9714 33.9703 79.3034C33.6382 79.6355 33.1877 79.8221 32.7181 79.8221Z" fill="#FF4343"/>
<path d="M51.2767 79.8221C50.807 79.8221 50.3566 79.6355 50.0245 79.3034C49.6924 78.9714 49.5059 78.5209 49.5059 78.0513V71.818C49.5059 71.3483 49.6924 70.8979 50.0245 70.5658C50.3566 70.2337 50.807 70.0471 51.2767 70.0471C51.7435 70.0562 52.1887 70.2457 52.5188 70.5758C52.849 70.906 53.0385 71.3511 53.0475 71.818V78.0513C53.0475 78.5209 52.861 78.9714 52.5289 79.3034C52.1968 79.6355 51.7464 79.8221 51.2767 79.8221Z" fill="#FF4343"/>
<path d="M41.9974 71.1804C41.5277 71.1804 41.0773 70.9938 40.7452 70.6617C40.4131 70.3296 40.2266 69.8792 40.2266 69.4096V41.0763C40.2266 40.6066 40.4131 40.1562 40.7452 39.8241C41.0773 39.492 41.5277 39.3054 41.9974 39.3054C42.467 39.3054 42.9175 39.492 43.2496 39.8241C43.5817 40.1562 43.7682 40.6066 43.7682 41.0763V69.4096C43.7682 69.8792 43.5817 70.3296 43.2496 70.6617C42.9175 70.9938 42.467 71.1804 41.9974 71.1804Z" fill="#FF4343"/>
</svg>
