<svg width="85" height="84" viewBox="0 0 85 84" fill="none" xmlns="http://www.w3.org/2000/svg">
<path d="M53.3458 73.9984H21.7542C18.7827 73.9892 15.9361 72.8166 13.8383 70.7376C11.7405 68.6587 10.5625 65.843 10.5625 62.9075V31.804C10.5718 28.8746 11.754 26.0678 13.8508 23.9964C15.9476 21.9251 18.7888 20.7573 21.7542 20.748H31.2104C31.6801 20.748 32.1305 20.9324 32.4626 21.2604C32.7947 21.5885 32.9812 22.0334 32.9812 22.4974C32.9812 22.9614 32.7947 23.4063 32.4626 23.7344C32.1305 24.0625 31.6801 24.2468 31.2104 24.2468H21.7542C19.7281 24.256 17.7877 25.0551 16.3551 26.4704C14.9225 27.8856 14.1135 29.8025 14.1042 31.804V62.9075C14.1041 64.9151 14.909 66.8409 16.3426 68.2637C17.7763 69.6865 19.722 70.4905 21.7542 70.4997H53.3458C54.3551 70.4997 55.3545 70.3033 56.2869 69.9218C57.2193 69.5403 58.0666 68.981 58.7802 68.276C59.4939 67.571 60.06 66.7341 60.4462 65.8129C60.8325 64.8918 61.0312 63.9045 61.0312 62.9075V56.6798C61.0312 56.2159 61.2178 55.7709 61.5499 55.4428C61.882 55.1148 62.3324 54.9305 62.8021 54.9305C63.2717 54.9305 63.7222 55.1148 64.0542 55.4428C64.3863 55.7709 64.5729 56.2159 64.5729 56.6798V62.9075C64.5729 65.849 63.3901 68.67 61.2846 70.75C59.1791 72.8299 56.3234 73.9984 53.3458 73.9984Z" fill="#FF4343"/>
<path d="M62.6596 33.0635C62.202 33.0639 61.762 32.8892 61.4318 32.5761C61.1017 32.263 60.9071 31.8358 60.8888 31.3841C60.8182 30.0877 60.4029 28.8327 59.6846 27.7455C59.1064 26.8423 58.3322 26.0775 57.4179 25.5063C56.3546 24.8277 55.138 24.419 53.8763 24.3167C53.6437 24.3077 53.4151 24.2535 53.2038 24.1572C52.9924 24.0608 52.8023 23.9242 52.6444 23.7553C52.4865 23.5863 52.3639 23.3882 52.2836 23.1724C52.2033 22.9565 52.1668 22.7272 52.1763 22.4974C52.1663 22.0543 52.3304 21.6247 52.6341 21.2985C52.9379 20.9723 53.3577 20.7751 53.8054 20.748C55.772 20.8346 57.6794 21.4385 59.3304 22.4974C60.6752 23.3339 61.8128 24.4578 62.6596 25.7862C63.7315 27.4172 64.3428 29.3015 64.4304 31.2442C64.4399 31.4739 64.4035 31.7033 64.3231 31.9192C64.2428 32.135 64.1202 32.3331 63.9623 32.502C63.8044 32.671 63.6143 32.8076 63.403 32.9039C63.1916 33.0003 62.9631 33.0545 62.7304 33.0635H62.6596Z" fill="#FF4343"/>
<path d="M46.2619 49.1224H37.514C37.0444 49.1224 36.594 48.9381 36.2619 48.61C35.9298 48.282 35.7432 47.837 35.7432 47.3731V38.5563C35.7404 38.0998 35.9184 37.6604 36.239 37.3318L53.9474 19.8382C54.2784 19.5177 54.7234 19.3381 55.187 19.3381C55.6505 19.3381 56.0955 19.5177 56.4265 19.8382L59.5078 22.8821C59.8322 23.2091 60.014 23.6487 60.014 24.1066C60.014 24.5645 59.8322 25.0042 59.5078 25.3312C59.3432 25.4951 59.1473 25.6253 58.9315 25.7141C58.7157 25.8029 58.4843 25.8486 58.2505 25.8486C58.0167 25.8486 57.7853 25.8029 57.5695 25.7141C57.3537 25.6253 57.1578 25.4951 56.9932 25.3312L55.187 23.5818L39.1786 39.291V45.6237H45.589L61.6328 29.7396L59.8265 27.9552C59.5021 27.6282 59.3203 27.1886 59.3203 26.7307C59.3203 26.2728 59.5021 25.8331 59.8265 25.5061C59.9912 25.3421 60.187 25.212 60.4028 25.1232C60.6186 25.0344 60.8501 24.9887 61.0838 24.9887C61.3176 24.9887 61.5491 25.0344 61.7649 25.1232C61.9806 25.212 62.1765 25.3421 62.3411 25.5061L65.387 28.515C65.5529 28.6776 65.6847 28.8711 65.7746 29.0843C65.8645 29.2975 65.9108 29.5261 65.9108 29.757C65.9108 29.988 65.8645 30.2166 65.7746 30.4298C65.6847 30.643 65.5529 30.8365 65.387 30.9991L47.6786 48.4926C47.5017 48.6914 47.2837 48.8505 47.0393 48.9591C46.795 49.0677 46.5299 49.1234 46.2619 49.1224Z" fill="#FF4343"/>
<path d="M64.2536 31.489C63.7807 31.4935 63.3242 31.3181 62.9786 30.9992L59.9328 27.9553C59.6083 27.6283 59.4266 27.1886 59.4266 26.7307C59.4266 26.2728 59.6083 25.8332 59.9328 25.5062C60.0974 25.3422 60.2933 25.2121 60.5091 25.1233C60.7249 25.0344 60.9563 24.9887 61.1901 24.9887C61.4239 24.9887 61.6553 25.0344 61.8711 25.1233C62.0869 25.2121 62.2828 25.3422 62.4474 25.5062L64.2536 27.2905L70.6286 20.9579L64.2536 14.6602L57.8432 20.9579L59.6495 22.7422C59.9739 23.0692 60.1557 23.5088 60.1557 23.9667C60.1557 24.4246 59.9739 24.8643 59.6495 25.1913C59.4848 25.3553 59.289 25.4854 59.0732 25.5742C58.8574 25.663 58.6259 25.7088 58.3922 25.7088C58.1584 25.7088 57.9269 25.663 57.7112 25.5742C57.4954 25.4854 57.2995 25.3553 57.1349 25.1913L54.089 22.1824C53.9189 22.0262 53.7838 21.8366 53.6923 21.6257C53.6008 21.4148 53.555 21.1873 53.5578 20.9579C53.5544 20.7232 53.5997 20.4903 53.6911 20.2736C53.7825 20.057 53.9179 19.8612 54.089 19.6983L62.9786 10.9515C63.1433 10.7876 63.3391 10.6574 63.5549 10.5686C63.7707 10.4798 64.0022 10.4341 64.2359 10.4341C64.4697 10.4341 64.7012 10.4798 64.9169 10.5686C65.1327 10.6574 65.3286 10.7876 65.4932 10.9515L74.3828 19.6983C74.7095 20.0312 74.8922 20.4767 74.8922 20.9404C74.8922 21.404 74.7095 21.8495 74.3828 22.1824L65.4932 30.9992C65.1605 31.3159 64.7157 31.4917 64.2536 31.489Z" fill="#FF4343"/>
</svg>
