<svg width="85" height="85" viewBox="0 0 85 85" fill="none" xmlns="http://www.w3.org/2000/svg">
<path d="M57.0421 53.7199H42.2025C41.7328 53.7199 41.2824 53.5333 40.9503 53.2012C40.6182 52.8691 40.4316 52.4187 40.4316 51.9491C40.4316 51.4794 40.6182 51.029 40.9503 50.6969C41.2824 50.3648 41.7328 50.1782 42.2025 50.1782H57.0421C57.5117 50.1782 57.9621 50.3648 58.2942 50.6969C58.6263 51.029 58.8129 51.4794 58.8129 51.9491C58.8129 52.4187 58.6263 52.8691 58.2942 53.2012C57.9621 53.5333 57.5117 53.7199 57.0421 53.7199Z" fill="#FF4343"/>
<path d="M67.0297 52.6219C66.8201 52.6716 66.6018 52.6716 66.3922 52.6219C66.1739 52.5433 65.9736 52.4217 65.8032 52.2643C65.6327 52.1069 65.4956 51.9169 65.3998 51.7056C65.3041 51.4942 65.2517 51.2659 65.2457 51.0339C65.2397 50.802 65.2803 50.5712 65.3651 50.3553L73.7943 27.8303C73.9611 27.3954 74.2925 27.0437 74.7168 26.8515C75.141 26.6592 75.624 26.6419 76.0609 26.8032C76.4992 26.9778 76.8537 27.3139 77.0514 27.7423C77.2491 28.1706 77.2749 28.6585 77.1234 29.1053L68.6943 51.524C68.5515 51.8475 68.3186 52.1231 68.0234 52.3178C67.7282 52.5124 67.3832 52.618 67.0297 52.6219Z" fill="#FF4343"/>
<path d="M30.8688 53.2951C30.4992 53.2977 30.1385 53.1823 29.8391 52.9658C29.5397 52.7492 29.3173 52.4427 29.2042 52.0909L18.0833 18.3034H7.45833C6.98868 18.3034 6.53826 18.1168 6.20617 17.7847C5.87407 17.4526 5.6875 17.0022 5.6875 16.5326C5.69657 16.0657 5.88605 15.6206 6.2162 15.2904C6.54635 14.9603 6.99152 14.7708 7.45833 14.7617H19.3583C19.7253 14.7695 20.0811 14.889 20.3785 15.1041C20.6759 15.3192 20.9007 15.6198 21.0229 15.9659L32.675 50.9576C32.7526 51.176 32.7857 51.4077 32.7723 51.6391C32.7589 51.8705 32.6992 52.0969 32.5969 52.3049C32.4945 52.5128 32.3516 52.6982 32.1764 52.85C32.0013 53.0018 31.7975 53.117 31.5771 53.1888C31.3521 53.2775 31.1099 53.3138 30.8688 53.2951Z" fill="#FF4343"/>
<path d="M36.3232 69.2324C34.2218 69.2324 32.1676 68.6093 30.4203 67.4418C28.673 66.2743 27.3112 64.6149 26.507 62.6734C25.7028 60.732 25.4924 58.5956 25.9024 56.5346C26.3124 54.4735 27.3243 52.5804 28.8102 51.0944C30.2962 49.6085 32.1894 48.5966 34.2504 48.1866C36.3115 47.7766 38.4478 47.987 40.3893 48.7912C42.3307 49.5954 43.9901 50.9572 45.1576 52.7045C46.3251 54.4518 46.9482 56.506 46.9482 58.6074C46.9482 61.4254 45.8288 64.1279 43.8363 66.1204C41.8437 68.113 39.1412 69.2324 36.3232 69.2324ZM36.3232 51.5241C34.9223 51.5241 33.5528 51.9395 32.388 52.7179C31.2231 53.4962 30.3152 54.6024 29.7791 55.8968C29.243 57.1911 29.1027 58.6153 29.376 59.9893C29.6493 61.3634 30.324 62.6255 31.3146 63.6161C32.3052 64.6067 33.5673 65.2814 34.9414 65.5547C36.3154 65.828 37.7396 65.6877 39.0339 65.1516C40.3282 64.6155 41.4345 63.7076 42.2128 62.5427C42.9912 61.3779 43.4066 60.0084 43.4066 58.6074C43.4066 56.7288 42.6603 54.9271 41.3319 53.5988C40.0035 52.2704 38.2019 51.5241 36.3232 51.5241Z" fill="#FF4343"/>
<path d="M62.9209 69.2324C60.8195 69.2324 58.7652 68.6093 57.018 67.4418C55.2707 66.2743 53.9089 64.6149 53.1047 62.6734C52.3005 60.732 52.0901 58.5956 52.5001 56.5346C52.91 54.4735 53.922 52.5804 55.4079 51.0944C56.8938 49.6085 58.787 48.5966 60.8481 48.1866C62.9091 47.7766 65.0454 47.987 66.9869 48.7912C68.9284 49.5954 70.5878 50.9572 71.7553 52.7045C72.9228 54.4518 73.5459 56.506 73.5459 58.6074C73.5459 61.4254 72.4265 64.1279 70.4339 66.1204C68.4413 68.113 65.7388 69.2324 62.9209 69.2324ZM62.9209 51.5241C61.5199 51.5241 60.1505 51.9395 58.9856 52.7179C57.8208 53.4962 56.9129 54.6024 56.3768 55.8968C55.8406 57.1911 55.7004 58.6153 55.9737 59.9893C56.247 61.3634 56.9216 62.6255 57.9122 63.6161C58.9029 64.6067 60.165 65.2814 61.539 65.5547C62.913 65.828 64.3373 65.6877 65.6316 65.1516C66.9259 64.6155 68.0321 63.7076 68.8105 62.5427C69.5888 61.3779 70.0042 60.0084 70.0042 58.6074C70.0042 56.7288 69.258 54.9271 67.9296 53.5988C66.6012 52.2704 64.7995 51.5241 62.9209 51.5241Z" fill="#FF4343"/>
</svg>
