<svg width="85" height="85" viewBox="0 0 85 85" fill="none" xmlns="http://www.w3.org/2000/svg">
<path d="M41.9046 75.643C32.9812 75.643 24.4232 72.0982 18.1134 65.7883C11.8036 59.4785 8.25879 50.9206 8.25879 41.9972C8.25879 33.0737 11.8036 24.5158 18.1134 18.206C24.4232 11.8961 32.9812 8.35132 41.9046 8.35132C42.3743 8.35132 42.8247 8.53789 43.1568 8.86998C43.4889 9.20208 43.6755 9.6525 43.6755 10.1222C43.6755 10.5918 43.4889 11.0422 43.1568 11.3743C42.8247 11.7064 42.3743 11.893 41.9046 11.893C36.938 11.8635 32.0412 13.0634 27.6508 15.3856C23.2604 17.7078 19.5128 21.0802 16.742 25.2022C13.9712 29.3242 12.2633 34.0677 11.7705 39.0099C11.2777 43.9521 12.0154 48.9394 13.9178 53.5274C15.8202 58.1153 18.8282 62.1613 22.6736 65.3046C26.5191 68.448 31.0825 70.5911 35.9572 71.5429C40.8319 72.4946 45.8663 72.2255 50.6117 70.7596C55.3572 69.2936 59.6661 66.6763 63.1546 63.1409C63.3121 62.9545 63.5064 62.8026 63.7253 62.6949C63.9442 62.5871 64.183 62.5257 64.4268 62.5146C64.6706 62.5035 64.914 62.5429 65.1418 62.6303C65.3696 62.7177 65.5769 62.8513 65.7507 63.0226C65.9244 63.1939 66.0609 63.3993 66.1515 63.6258C66.2422 63.8524 66.285 64.0952 66.2774 64.3391C66.2697 64.583 66.2118 64.8227 66.1071 65.0431C66.0024 65.2636 65.8534 65.46 65.6692 65.6201C62.5726 68.7858 58.8762 71.3027 54.7958 73.0236C50.7154 74.7445 46.333 75.635 41.9046 75.643Z" fill="#FF4343"/>
<path d="M40.8422 53.3304C40.6125 53.3378 40.3838 53.2976 40.1705 53.2122C39.9572 53.1269 39.7638 52.9983 39.6026 52.8346L25.4359 38.6679C25.2699 38.5033 25.1382 38.3075 25.0483 38.0917C24.9584 37.8759 24.9121 37.6444 24.9121 37.4106C24.9121 37.1769 24.9584 36.9454 25.0483 36.7296C25.1382 36.5138 25.2699 36.318 25.4359 36.1534C25.7729 35.8266 26.2238 35.6439 26.6932 35.6439C27.1626 35.6439 27.6135 35.8266 27.9505 36.1534L40.8422 49.0804L69.7068 20.2159C70.0402 19.8824 70.4925 19.6951 70.964 19.6951C71.4356 19.6951 71.8879 19.8824 72.2213 20.2159C72.5548 20.5493 72.7421 21.0016 72.7421 21.4731C72.7421 21.9447 72.5548 22.397 72.2213 22.7304L42.1172 52.8346C41.9481 52.9977 41.7484 53.1255 41.5295 53.2106C41.3106 53.2957 41.077 53.3365 40.8422 53.3304Z" fill="#FF4343"/>
</svg>
