<svg width="85" height="85" viewBox="0 0 85 85" fill="none" xmlns="http://www.w3.org/2000/svg">
<path d="M25.0678 74.297C23.7922 74.2654 22.5566 73.8453 21.5261 73.0928C20.4391 72.3115 19.6343 71.1992 19.2321 69.9223C18.8299 68.6455 18.8519 67.2728 19.2949 66.0095L23.7574 52.2678C23.9318 51.7257 23.9298 51.1421 23.7516 50.6012C23.5734 50.0602 23.2282 49.5897 22.7657 49.2574L11.0782 40.7574C10.0268 39.9882 9.24283 38.9089 8.83645 37.6712C8.43006 36.4335 8.42167 35.0995 8.81247 33.8568C9.20326 32.6141 9.9736 31.525 11.0152 30.7427C12.0569 29.9603 13.3174 29.5239 14.6199 29.4949H29.0699C29.6133 29.5074 30.1477 29.355 30.6029 29.0579C31.058 28.7608 31.4126 28.3328 31.6199 27.8303L36.0823 14.0532C36.4599 12.7825 37.2417 11.6695 38.3092 10.8833C39.3766 10.0971 40.6713 9.68063 41.9969 9.697C43.3122 9.68182 44.5974 10.0903 45.6626 10.8621C46.7277 11.6338 47.5162 12.7279 47.9115 13.9824L52.374 27.8303C52.5569 28.3631 52.9001 28.8261 53.3567 29.1559C53.8133 29.4856 54.3608 29.6659 54.924 29.672H69.4094C70.7118 29.701 71.9724 30.1374 73.014 30.9197C74.0557 31.7021 74.826 32.7912 75.2168 34.0339C75.6076 35.2766 75.5992 36.6106 75.1928 37.8483C74.7864 39.086 74.0025 40.1653 72.9511 40.9345L61.2636 49.4345C60.8011 49.7668 60.4559 50.2373 60.2777 50.7783C60.0995 51.3192 60.0975 51.9027 60.2719 52.4449L64.7699 66.222C65.2033 67.4895 65.2169 68.8629 64.8086 70.1387C64.4004 71.4146 63.592 72.5249 62.5032 73.3053C61.4468 74.1012 60.1602 74.5316 58.8376 74.5316C57.515 74.5316 56.2283 74.1012 55.1719 73.3053L43.4844 64.8053C43.0237 64.479 42.473 64.3038 41.9084 64.3038C41.3438 64.3038 40.7931 64.479 40.3324 64.8053L28.6094 73.3053C27.5592 73.9929 26.3223 74.3392 25.0678 74.297ZM14.5844 33.1428C14.016 33.1266 13.4581 33.2983 12.9971 33.6313C12.5362 33.9642 12.1978 34.4398 12.0344 34.9845C11.8506 35.5226 11.8443 36.1054 12.0165 36.6473C12.1886 37.1892 12.5301 37.6615 12.9907 37.9949L24.7136 46.4949C25.798 47.279 26.603 48.3896 27.0108 49.6641C27.4187 50.9387 27.408 52.3102 26.9803 53.5782L22.5178 67.2137C22.3281 67.7512 22.3189 68.3359 22.4914 68.8791C22.664 69.4223 23.0089 69.8945 23.474 70.2241C23.9259 70.5716 24.48 70.76 25.0501 70.76C25.6201 70.76 26.1742 70.5716 26.6261 70.2241L38.4553 61.7241C39.5129 60.9473 40.7909 60.5284 42.1032 60.5284C43.4155 60.5284 44.6935 60.9473 45.7511 61.7241L57.3678 70.3303C57.8197 70.6778 58.3737 70.8662 58.9438 70.8662C59.5139 70.8662 60.068 70.6778 60.5198 70.3303C60.9849 70.0008 61.3299 69.5286 61.5024 68.9854C61.675 68.4421 61.6658 67.8574 61.4761 67.3199L57.0136 53.5782C56.5859 52.3102 56.5752 50.9387 56.983 49.6641C57.3909 48.3896 58.1959 47.279 59.2803 46.4949L70.9678 37.9949C71.4189 37.6598 71.7539 37.1919 71.9257 36.6567C72.0974 36.1216 72.0974 35.5461 71.9255 35.011C71.7537 34.4759 71.4186 34.008 70.9674 33.673C70.5162 33.338 69.9714 33.1526 69.4094 33.1428H54.924C53.6248 33.1267 52.3632 32.7049 51.3154 31.9366C50.2677 31.1682 49.4862 30.0917 49.0803 28.8574L44.5469 15.0803C44.3836 14.5357 44.0452 14.06 43.5842 13.7271C43.1232 13.3942 42.5653 13.2225 41.9969 13.2387C41.4285 13.2225 40.8706 13.3942 40.4096 13.7271C39.9487 14.06 39.6103 14.5357 39.4469 15.0803L34.9136 28.8574C34.5077 30.0917 33.7262 31.1682 32.6785 31.9366C31.6307 32.7049 30.369 33.1267 29.0699 33.1428H14.5844Z" fill="#FF4343"/>
</svg>
