<svg width="19" height="19" viewBox="0 0 19 19" fill="none" xmlns="http://www.w3.org/2000/svg">
<path d="M17.2656 0H1.01562C0.746265 0 0.487936 0.107003 0.29747 0.29747C0.107003 0.487936 0 0.746265 0 1.01562V17.2656C0 17.535 0.107003 17.7933 0.29747 17.9838C0.487936 18.1742 0.746265 18.2812 1.01562 18.2812H17.2656C17.535 18.2812 17.7933 18.1742 17.9838 17.9838C18.1742 17.7933 18.2812 17.535 18.2812 17.2656V1.01562C18.2812 0.746265 18.1742 0.487936 17.9838 0.29747C17.7933 0.107003 17.535 0 17.2656 0ZM5.42242 15.5766H2.70867V6.85242H5.42242V15.5766ZM4.06555 5.66109C3.64858 5.66109 3.24868 5.49545 2.95384 5.20061C2.659 4.90577 2.49336 4.50588 2.49336 4.08891C2.49336 3.67194 2.659 3.27204 2.95384 2.9772C3.24868 2.68236 3.64858 2.51672 4.06555 2.51672C4.48252 2.51672 4.88241 2.68236 5.17725 2.9772C5.47209 3.27204 5.63773 3.67194 5.63773 4.08891C5.63773 4.50588 5.47209 4.90577 5.17725 5.20061C4.88241 5.49545 4.48252 5.66109 4.06555 5.66109ZM15.5777 15.5766H12.867V11.3344C12.867 10.3228 12.8487 9.0218 11.4573 9.0218C10.0455 9.0218 9.83125 10.1248 9.83125 11.2633V15.5777H7.12258V6.85344H9.72258V8.04578H9.76016C10.1207 7.36023 11.0063 6.63711 12.3236 6.63711C15.0698 6.63711 15.5766 8.44289 15.5766 10.793V15.5766H15.5777Z" fill="#C6CBCD"/>
</svg>
