<svg width="20" height="17" viewBox="0 0 20 17" fill="none" xmlns="http://www.w3.org/2000/svg">
<path d="M17.9085 4.04016C17.9217 4.21789 17.9217 4.39461 17.9217 4.57133C17.9217 9.97953 13.8054 16.2114 6.28266 16.2114C3.965 16.2114 1.81187 15.5401 0 14.3741C0.329062 14.4117 0.645938 14.4249 0.988203 14.4249C2.82952 14.4294 4.6187 13.8137 6.06734 12.677C5.21363 12.6616 4.38605 12.3799 3.70016 11.8714C3.01427 11.3628 2.50431 10.6528 2.24148 9.84039C2.49437 9.87797 2.74828 9.90336 3.01437 9.90336C3.38102 9.90336 3.74969 9.85258 4.09195 9.76422C3.16546 9.57715 2.33236 9.07496 1.7343 8.34304C1.13624 7.61112 0.810157 6.69464 0.811484 5.74945V5.69867C1.35688 6.00234 1.98961 6.19227 2.65992 6.21766C2.09837 5.8445 1.63792 5.33815 1.31964 4.74377C1.00137 4.1494 0.835162 3.48548 0.835859 2.81125C0.835859 2.05156 1.03797 1.35484 1.39242 0.747501C2.42038 2.01197 3.70246 3.04643 5.15565 3.78387C6.60884 4.52131 8.20073 4.9453 9.8282 5.02836C9.76523 4.72367 9.72664 4.40781 9.72664 4.09094C9.72637 3.55363 9.83201 3.02154 10.0375 2.52509C10.243 2.02863 10.5443 1.57754 10.9243 1.19761C11.3042 0.817681 11.7553 0.516355 12.2517 0.310861C12.7482 0.105367 13.2803 -0.000266479 13.8176 5.0483e-07C14.9957 5.0483e-07 16.0591 0.493594 16.8066 1.29188C17.7224 1.11477 18.6007 0.780429 19.4025 0.303672C19.0972 1.24903 18.4577 2.05065 17.6038 2.55836C18.4161 2.46571 19.21 2.2521 19.9591 1.92461C19.3996 2.74026 18.7063 3.45551 17.9085 4.04016Z" fill="#C6CBCD"/>
</svg>
